<svg id="appStore" xmlns="http://www.w3.org/2000/svg" width="202.498" height="60" viewBox="0 0 202.498 60">
  <path id="Path_80" data-name="Path 80" d="M203.383,55.142a5.747,5.747,0,0,1-5.754,5.747H9.324a5.755,5.755,0,0,1-5.762-5.747V9.315A5.762,5.762,0,0,1,9.324,3.561h188.3a5.753,5.753,0,0,1,5.754,5.754l0,45.827Z" transform="translate(-2.226 -2.226)" fill="#fff"/>
  <path id="Path_81" data-name="Path 81" d="M195.4,60H7.1A7.1,7.1,0,0,1,0,52.918V7.091A7.1,7.1,0,0,1,7.1,0H195.4a7.105,7.105,0,0,1,7.1,7.091V52.917A7.1,7.1,0,0,1,195.4,60Z" fill="#a6a6a6"/>
  <path id="Path_82" data-name="Path 82" d="M203.383,55.142a5.747,5.747,0,0,1-5.754,5.747H9.324a5.755,5.755,0,0,1-5.762-5.747V9.315A5.762,5.762,0,0,1,9.324,3.561h188.3a5.753,5.753,0,0,1,5.754,5.754l0,45.827Z" transform="translate(-2.226 -2.226)"/>
  <path id="Path_83" data-name="Path 83" d="M77.213,45.231a8.7,8.7,0,0,1,4.144-7.3,8.912,8.912,0,0,0-7.018-3.793c-2.952-.311-5.816,1.766-7.319,1.766-1.534,0-3.85-1.736-6.345-1.685a9.344,9.344,0,0,0-7.864,4.8c-3.4,5.886-.864,14.536,2.394,19.294,1.63,2.332,3.534,4.932,6.027,4.84,2.439-.1,3.35-1.553,6.293-1.553,2.916,0,3.772,1.553,6.314,1.494,2.617-.041,4.265-2.341,5.838-4.692a19.231,19.231,0,0,0,2.67-5.436,8.415,8.415,0,0,1-5.133-7.733Zm-4.8-14.221a8.559,8.559,0,0,0,1.96-6.135,8.724,8.724,0,0,0-5.64,2.917A8.146,8.146,0,0,0,66.72,33.7,7.206,7.206,0,0,0,72.411,31.01Z" transform="translate(-31.997 -15.547)" fill="#fff"/>
  <g id="Group_46" data-name="Group 46" transform="translate(63.679 27.006)">
    <path id="Path_85" data-name="Path 85" d="M186.673,92.279h-3.408L181.4,86.414h-6.49l-1.778,5.865h-3.318l6.431-19.967h3.971Zm-5.838-8.326-1.688-5.214q-.268-.8-1.007-3.762h-.06q-.3,1.274-.949,3.762l-1.66,5.214Zm22.344.95a8.152,8.152,0,0,1-2,5.805,5.853,5.853,0,0,1-4.439,1.9,4.444,4.444,0,0,1-4.112-2.042v7.555h-3.2v-15.5q0-2.307-.119-4.732h2.814l.179,2.282h.06a5.693,5.693,0,0,1,9.111-.566A7.96,7.96,0,0,1,203.179,84.9Zm-3.26.117a5.934,5.934,0,0,0-.949-3.467,3.278,3.278,0,0,0-2.785-1.421,3.328,3.328,0,0,0-2.148.785,3.64,3.64,0,0,0-1.259,2.06,4.175,4.175,0,0,0-.149.974v2.4A3.851,3.851,0,0,0,193.593,89a3.2,3.2,0,0,0,2.5,1.082,3.28,3.28,0,0,0,2.814-1.392A6.127,6.127,0,0,0,199.919,85.02Zm19.824-.117a8.152,8.152,0,0,1-2,5.805,5.856,5.856,0,0,1-4.441,1.9,4.444,4.444,0,0,1-4.112-2.042v7.555h-3.2v-15.5q0-2.307-.119-4.732h2.814l.179,2.282h.06a5.695,5.695,0,0,1,9.113-.566,7.968,7.968,0,0,1,1.7,5.305Zm-3.261.117a5.935,5.935,0,0,0-.95-3.467,3.273,3.273,0,0,0-2.783-1.421,3.342,3.342,0,0,0-2.151.785,3.637,3.637,0,0,0-1.258,2.06,4.271,4.271,0,0,0-.15.974v2.4A3.864,3.864,0,0,0,210.153,89a3.206,3.206,0,0,0,2.506,1.082,3.276,3.276,0,0,0,2.814-1.392A6.127,6.127,0,0,0,216.482,85.02Zm21.781,1.658a5.333,5.333,0,0,1-1.775,4.149,7.871,7.871,0,0,1-5.44,1.748,9.5,9.5,0,0,1-5.172-1.244l.74-2.666a8.9,8.9,0,0,0,4.622,1.245,4.362,4.362,0,0,0,2.814-.815,2.661,2.661,0,0,0,1.01-2.176,2.788,2.788,0,0,0-.831-2.045,7.708,7.708,0,0,0-2.755-1.539q-5.245-1.956-5.247-5.72a5.049,5.049,0,0,1,1.852-4.029,7.324,7.324,0,0,1,4.9-1.571,9.694,9.694,0,0,1,4.534.948l-.8,2.608a7.929,7.929,0,0,0-3.838-.918,3.9,3.9,0,0,0-2.647.83,2.374,2.374,0,0,0-.8,1.809,2.445,2.445,0,0,0,.92,1.955,10.365,10.365,0,0,0,2.9,1.539,9.84,9.84,0,0,1,3.793,2.428,5.059,5.059,0,0,1,1.22,3.463Zm10.606-6.4h-3.527v6.99q0,2.667,1.867,2.665a5.623,5.623,0,0,0,1.421-.149l.089,2.429a7.251,7.251,0,0,1-2.488.354,3.836,3.836,0,0,1-2.964-1.157,5.672,5.672,0,0,1-1.067-3.882V80.276h-2.1v-2.4h2.1V75.239l3.143-.948v3.584h3.527Zm15.882,4.68a7.9,7.9,0,0,1-1.9,5.451,6.763,6.763,0,0,1-5.274,2.192,6.447,6.447,0,0,1-5.053-2.1,7.657,7.657,0,0,1-1.882-5.3,7.833,7.833,0,0,1,1.941-5.479,6.728,6.728,0,0,1,5.232-2.134,6.582,6.582,0,0,1,5.1,2.1,7.558,7.558,0,0,1,1.838,5.269Zm-3.317.074a6.446,6.446,0,0,0-.857-3.4,3.167,3.167,0,0,0-2.876-1.715,3.213,3.213,0,0,0-2.934,1.715,6.553,6.553,0,0,0-.858,3.457,6.427,6.427,0,0,0,.858,3.4,3.282,3.282,0,0,0,5.783-.029,6.471,6.471,0,0,0,.884-3.43Zm13.722-4.341a5.57,5.57,0,0,0-1.009-.089,3.02,3.02,0,0,0-2.608,1.275,4.8,4.8,0,0,0-.8,2.843v7.555h-3.2V82.415q0-2.267-.093-4.533h2.787l.117,2.755h.089a4.939,4.939,0,0,1,1.6-2.282,3.87,3.87,0,0,1,2.313-.771,5.138,5.138,0,0,1,.8.059Zm14.31,3.7a7.5,7.5,0,0,1-.117,1.451h-9.6a4.175,4.175,0,0,0,1.393,3.262,4.763,4.763,0,0,0,3.14,1.005,10.619,10.619,0,0,0,3.884-.68l.5,2.219a12.011,12.011,0,0,1-4.828.89,7,7,0,0,1-5.262-1.969,7.277,7.277,0,0,1-1.911-5.287,8.246,8.246,0,0,1,1.78-5.419,6.133,6.133,0,0,1,5.035-2.309A5.367,5.367,0,0,1,288.2,79.87,7.769,7.769,0,0,1,289.467,84.4Zm-3.051-.83a4.33,4.33,0,0,0-.621-2.459,2.794,2.794,0,0,0-2.548-1.335,3.034,3.034,0,0,0-2.547,1.3,4.778,4.778,0,0,0-.947,2.488Z" transform="translate(-169.812 -72.016)" fill="#fff"/>
  </g>
  <g id="Group_47" data-name="Group 47" transform="translate(65.552 9.832)">
    <path id="Path_86" data-name="Path 86" d="M177.107,36.629a20.436,20.436,0,0,1-2.3-.117V26.858a17.423,17.423,0,0,1,2.709-.2c3.669,0,5.359,1.8,5.359,4.747C182.875,34.8,180.879,36.629,177.107,36.629Zm.537-8.737a6.421,6.421,0,0,0-1.267.1v7.339a8.307,8.307,0,0,0,1.063.044c2.4,0,3.773-1.368,3.773-3.931A3.2,3.2,0,0,0,177.644,27.892Zm10.5,8.81a3.368,3.368,0,0,1-3.408-3.64,3.447,3.447,0,0,1,3.525-3.742,3.342,3.342,0,0,1,3.408,3.626A3.467,3.467,0,0,1,188.141,36.7Zm.06-6.233c-1.136,0-1.864,1.062-1.864,2.548,0,1.457.743,2.519,1.849,2.519s1.849-1.136,1.849-2.549C190.035,31.547,189.307,30.47,188.2,30.47Zm15.259-1-2.214,7.076H199.8l-.917-3.073a23.3,23.3,0,0,1-.569-2.285h-.03a15.312,15.312,0,0,1-.567,2.285l-.976,3.073h-1.457L193.2,29.466h1.616l.8,3.364q.284,1.2.48,2.272h.03c.116-.6.3-1.34.582-2.257l1.006-3.377H199l.962,3.305c.233.8.422,1.587.569,2.33h.042a20.36,20.36,0,0,1,.48-2.33l.86-3.305h1.544Zm8.149,7.076h-1.573V32.479c0-1.251-.48-1.879-1.427-1.879a1.633,1.633,0,0,0-1.573,1.733v4.209h-1.573V31.489c0-.626-.015-1.3-.059-2.024h1.384l.074,1.092h.044a2.543,2.543,0,0,1,2.244-1.236c1.486,0,2.461,1.136,2.461,2.984l0,4.237Zm4.337,0h-1.574V26.219h1.574Zm5.735.161a3.369,3.369,0,0,1-3.408-3.64,3.446,3.446,0,0,1,3.524-3.742,3.341,3.341,0,0,1,3.408,3.626A3.466,3.466,0,0,1,221.681,36.7Zm.059-6.233c-1.136,0-1.864,1.062-1.864,2.548,0,1.457.744,2.519,1.847,2.519s1.849-1.136,1.849-2.549c0-1.44-.725-2.518-1.832-2.518Zm9.667,6.072-.114-.815h-.042a2.417,2.417,0,0,1-2.07.975,2.058,2.058,0,0,1-2.169-2.083c0-1.746,1.514-2.65,4.136-2.65V31.84c0-.932-.494-1.4-1.469-1.4a3.313,3.313,0,0,0-1.849.525l-.32-1.034a4.525,4.525,0,0,1,2.43-.612c1.849,0,2.782.975,2.782,2.927v2.606a10.687,10.687,0,0,0,.1,1.689h-1.418Zm-.216-3.524c-1.747,0-2.623.423-2.623,1.427a1,1,0,0,0,1.079,1.106,1.506,1.506,0,0,0,1.544-1.44Zm9.17,3.524-.074-1.136h-.044a2.373,2.373,0,0,1-2.272,1.3c-1.706,0-2.97-1.5-2.97-3.611,0-2.213,1.31-3.772,3.1-3.772a2.127,2.127,0,0,1,2,.962h.032V26.219H241.7v8.416c0,.684.016,1.325.059,1.907h-1.4Zm-.233-4.164a1.712,1.712,0,0,0-1.657-1.835c-1.166,0-1.879,1.034-1.879,2.489,0,1.427.74,2.4,1.848,2.4a1.766,1.766,0,0,0,1.688-1.879V32.378ZM251.684,36.7a3.368,3.368,0,0,1-3.407-3.64,3.446,3.446,0,0,1,3.524-3.742,3.341,3.341,0,0,1,3.408,3.626,3.466,3.466,0,0,1-3.525,3.756Zm.059-6.233c-1.135,0-1.862,1.062-1.862,2.548,0,1.457.743,2.519,1.847,2.519s1.849-1.136,1.849-2.549C253.579,31.547,252.851,30.47,251.742,30.47Zm11.925,6.072h-1.574V32.479c0-1.251-.48-1.879-1.427-1.879a1.632,1.632,0,0,0-1.571,1.733v4.209h-1.574V31.489c0-.626-.015-1.3-.059-2.024h1.384l.074,1.092h.044a2.541,2.541,0,0,1,2.242-1.238c1.486,0,2.463,1.136,2.463,2.984Zm10.582-5.9h-1.73v3.436c0,.875.3,1.311.916,1.311a3.1,3.1,0,0,0,.7-.074l.044,1.194a3.485,3.485,0,0,1-1.22.176c-1.24,0-1.981-.684-1.981-2.476V30.645h-1.033V29.466h1.033v-1.3l1.544-.467v1.761h1.73Zm8.327,5.9h-1.571V32.509c0-1.266-.479-1.907-1.427-1.907A1.542,1.542,0,0,0,278,32.276v4.266h-1.571V26.219H278V30.47h.032a2.386,2.386,0,0,1,2.128-1.151c1.5,0,2.413,1.164,2.413,3.014Zm8.531-3.16h-4.72a2.031,2.031,0,0,0,2.23,2.1,5.316,5.316,0,0,0,1.908-.335l.245,1.092a5.91,5.91,0,0,1-2.374.437,3.285,3.285,0,0,1-3.524-3.566c0-2.17,1.342-3.8,3.347-3.8,1.809,0,2.943,1.34,2.943,3.364A3.03,3.03,0,0,1,291.107,33.382Zm-1.442-1.121c0-1.092-.551-1.864-1.556-1.864a1.865,1.865,0,0,0-1.72,1.864h3.276Z" transform="translate(-174.806 -26.219)" fill="#fff"/>
  </g>
</svg>
